<svg width="1440" height="671" viewBox="0 0 1440 671" fill="none" xmlns="http://www.w3.org/2000/svg">
<g opacity="0.25">
<path d="M-215 -51.0364C36.1938 50.2889 171.596 183.925 249.687 293.249C314.784 384.393 313.629 421.676 382.753 489.677C532.757 637.235 820.107 738.991 959.372 612.185C1027.97 549.719 1002.6 470.559 1035.41 320.704C1064.93 185.9 1141.26 0.495842 1354.35 -201" stroke="#2349FF" stroke-miterlimit="10"/>
<path d="M-214.498 -18.3453C29.8302 68.736 163.878 194.455 241.929 296.768C307.601 382.88 312.941 417.315 386.362 484.147C540.384 624.345 810.242 721.952 949.703 603.634C1021.54 542.694 1005.2 464.889 1043.65 315.473C1077.5 183.93 1155.38 1.69604 1364.8 -197.993" stroke="#2349FF" stroke-miterlimit="10"/>
<path d="M-213.995 14.3413C23.4617 87.1831 156.26 205.017 234.183 300.287C300.567 381.449 312.134 412.958 389.985 478.616C547.684 611.619 800.807 705.14 940.055 595.087C1015.28 535.629 1007.69 459.295 1051.9 310.247C1089.94 181.996 1169.52 2.90979 1375.28 -194.963" stroke="#2349FF" stroke-miterlimit="10"/>
<path d="M-213.493 47.0325C17.0937 105.635 148.773 215.611 226.438 303.833C293.619 380.104 311.196 408.633 393.626 473.082C554.691 599.073 791.781 688.582 930.417 586.536C1009.19 528.564 1010.08 453.765 1060.16 305.016C1102.22 180.089 1183.67 4.12368 1385.74 -191.946" stroke="#2349FF" stroke-miterlimit="10"/>
<path d="M-212.988 79.7191C10.7499 124.073 141.442 226.204 218.695 307.33C286.79 378.831 310.183 404.348 397.224 467.552C561.372 586.713 783.082 672.295 920.74 577.985C1003.21 521.485 1012.29 448.271 1068.39 299.784C1114.33 178.191 1197.79 5.33295 1396.17 -188.907" stroke="#2349FF" stroke-miterlimit="10"/>
<path d="M-212.486 112.406C4.36344 142.52 134.277 236.802 210.95 310.849C280.105 377.635 309.005 400.127 400.847 462.017C567.831 574.557 774.739 656.285 911.083 569.439C997.413 514.446 1014.35 442.805 1076.64 294.553C1126.31 176.289 1211.93 6.54677 1406.64 -185.913" stroke="#2349FF" stroke-miterlimit="10"/>
<path d="M-211.984 145.092C-2.00479 160.944 127.311 247.355 203.205 314.368C273.574 376.503 307.751 395.978 404.465 456.487C574.081 562.6 766.695 640.564 901.427 560.888C991.751 507.471 1016.31 437.338 1084.88 289.327C1138.14 174.369 1226.08 7.76053 1417.09 -182.893" stroke="#2349FF" stroke-miterlimit="10"/>
<path d="M-211.464 177.784C-8.35532 179.41 120.58 257.858 195.478 317.887C267.241 375.407 306.441 391.92 408.101 450.957C580.162 550.847 758.94 625.129 891.788 552.337C986.247 500.583 1018.12 431.863 1093.15 284.096C1149.83 172.426 1240.19 8.98803 1427.56 -179.876" stroke="#2349FF" stroke-miterlimit="10"/>
<path d="M-210.979 210.47C-14.741 197.857 114.049 268.262 187.715 321.411C261.087 374.329 304.983 387.989 411.707 445.423C586.078 539.293 751.39 609.983 882.114 543.79C980.849 493.807 1019.74 426.341 1101.38 278.864C1161.4 170.442 1254.33 10.1836 1438.04 -176.86" stroke="#2349FF" stroke-miterlimit="10"/>
<path d="M-210.476 243.143C-21.1048 216.29 107.776 278.516 179.97 324.916C255.121 373.215 303.488 384.103 415.325 439.879C591.861 527.916 744.03 595.101 872.458 535.226C975.563 487.158 1021.23 420.752 1109.63 273.62C1172.84 168.395 1268.47 11.3838 1448.48 -173.857" stroke="#2349FF" stroke-miterlimit="10"/>
<path d="M-209.972 275.848C-27.4488 234.751 101.749 288.625 172.231 328.449C249.398 372.055 301.94 380.385 418.95 434.358C597.569 516.752 736.844 580.522 862.803 526.693C970.401 480.709 1022.58 415.114 1117.87 268.402C1184.18 166.32 1282.61 12.6113 1458.94 -170.818" stroke="#2349FF" stroke-miterlimit="10"/>
<path d="M-209.469 308.534C-33.8395 253.193 95.9514 298.502 164.486 331.968C243.89 370.746 300.359 376.779 422.569 428.828C603.208 505.75 729.788 566.187 853.147 518.142C965.338 474.45 1023.79 409.371 1126.12 263.175C1195.42 164.169 1296.74 13.8204 1469.4 -167.806" stroke="#2349FF" stroke-miterlimit="10"/>
<path d="M-208.967 341.226C-40.2076 271.64 90.3532 308.127 156.741 335.492C238.591 369.229 298.702 373.296 426.192 423.298C608.801 494.917 722.822 552.106 843.495 509.591C960.346 468.421 1024.87 403.524 1134.37 257.944C1206.57 161.95 1310.88 15.0342 1479.86 -164.79" stroke="#2349FF" stroke-miterlimit="10"/>
<path d="M-208.464 373.912C-46.5712 290.087 84.9226 317.471 148.996 339.011C233.478 367.413 297.035 369.945 429.801 417.763C614.354 484.233 715.91 538.238 833.83 501.045C955.45 462.66 1025.81 397.55 1142.61 252.713C1217.66 159.653 1325.01 16.2345 1490.32 -161.76" stroke="#2349FF" stroke-miterlimit="10"/>
<path d="M-207.962 406.599C-52.9396 308.53 79.6005 326.511 141.233 342.53C228.482 365.203 295.331 366.72 433.415 412.233C619.901 473.698 709.025 524.637 824.165 492.494C950.595 457.198 1026.64 391.445 1150.85 247.468C1228.66 157.267 1339.13 17.4438 1500.76 -158.771" stroke="#2349FF" stroke-miterlimit="10"/>
<path d="M-207.46 439.29C-59.2852 326.977 74.3237 335.243 133.506 346.049C223.59 362.499 293.651 363.627 437.052 406.699C625.463 463.312 702.168 511.226 814.526 483.947C945.803 452.067 1027.39 385.212 1159.11 242.255C1239.67 154.825 1353.29 18.6711 1511.24 -155.736" stroke="#2349FF" stroke-miterlimit="10"/>
<path d="M-206.934 471.977C-65.6532 345.424 69.6586 360.053 125.783 349.573C217.584 332.426 291.975 360.665 440.697 401.169C631.056 453.022 695.265 498.015 804.87 475.396C941.011 447.316 1028.04 378.795 1167.36 237.024C1250.61 152.303 1367.42 19.8849 1521.7 -152.702" stroke="#2349FF" stroke-miterlimit="10"/>
<path d="M-206.453 504.663C-72.038 363.871 64.8862 365.352 118.017 353.092C211.14 331.606 290.255 357.825 444.295 395.639C636.669 442.877 688.283 484.998 795.215 466.845C936.206 442.941 1028.61 372.241 1175.61 231.784C1261.53 149.685 1381.56 21.0852 1532.16 -149.712" stroke="#2349FF" stroke-miterlimit="10"/>
<path d="M-205.951 537.355C-78.4063 382.314 59.4872 370.131 110.272 356.611C205.071 331.379 288.565 355.112 447.918 390.127C642.312 432.818 681.212 472.131 785.559 458.321C931.365 439.023 1029.12 365.547 1183.85 226.585C1272.44 147.031 1395.7 22.3216 1542.62 -146.664" stroke="#2349FF" stroke-miterlimit="10"/>
<path d="M-205.448 570.041C-84.7744 400.761 51.8283 367.59 102.532 360.13C202.403 345.47 286.903 352.512 451.541 384.588C648.014 422.845 674.02 459.395 775.907 449.761C926.446 435.513 1029.57 358.636 1192.11 221.331C1283.35 144.245 1409.84 23.5219 1553.08 -143.67" stroke="#2349FF" stroke-miterlimit="10"/>
<path d="M-204.946 602.728C-91.1425 419.208 45.5145 375.28 94.7823 363.654C196.076 339.754 285.25 350.03 455.155 379.053C653.752 412.962 666.665 446.799 766.246 441.21C921.418 432.505 1029.99 351.625 1200.35 216.113C1294.26 141.415 1423.97 24.7447 1563.54 -140.641" stroke="#2349FF" stroke-miterlimit="10"/>
<path d="M-204.443 635.419C-97.5061 437.655 38.7705 382.98 87.0373 367.173C189.169 333.712 283.628 347.657 458.778 373.514C659.558 403.152 659.137 434.304 756.594 432.655C916.246 429.938 1030.37 344.423 1208.6 210.878C1305.17 138.521 1438.1 25.945 1574 -137.633" stroke="#2349FF" stroke-miterlimit="10"/>
</g>
</svg>
